<mxfile host="app.diagrams.net" agent="Mozilla/5.0 (Windows NT 10.0; Win64; x64) AppleWebKit/537.36 (KHTML, like Gecko) Chrome/135.0.0.0 Safari/537.36 Edg/135.0.0.0" version="26.2.9">
  <diagram name="第 1 页" id="ljm1l8AxHi2tK6NgdWRJ">
    <mxGraphModel dx="2407" dy="1191" grid="1" gridSize="10" guides="1" tooltips="1" connect="1" arrows="1" fold="1" page="0" pageScale="1" pageWidth="827" pageHeight="1169" math="0" shadow="0">
      <root>
        <mxCell id="0" />
        <mxCell id="1" parent="0" />
        <mxCell id="_LIMwHvcYpEE9VmflvDN-14" style="edgeStyle=none;curved=1;rounded=0;orthogonalLoop=1;jettySize=auto;html=1;entryX=0.5;entryY=0;entryDx=0;entryDy=0;fontSize=12;startSize=8;endSize=8;" edge="1" parent="1" source="_LIMwHvcYpEE9VmflvDN-2" target="_LIMwHvcYpEE9VmflvDN-3">
          <mxGeometry relative="1" as="geometry" />
        </mxCell>
        <mxCell id="_LIMwHvcYpEE9VmflvDN-2" value="视频帧" style="rounded=1;whiteSpace=wrap;html=1;" vertex="1" parent="1">
          <mxGeometry x="-570" y="-20" width="170" height="50" as="geometry" />
        </mxCell>
        <mxCell id="_LIMwHvcYpEE9VmflvDN-3" value="yolov11提取人体和人脸图片" style="rounded=1;whiteSpace=wrap;html=1;" vertex="1" parent="1">
          <mxGeometry x="-570" y="80" width="170" height="50" as="geometry" />
        </mxCell>
        <mxCell id="_LIMwHvcYpEE9VmflvDN-4" value="arcface计算人脸特征" style="rounded=1;whiteSpace=wrap;html=1;" vertex="1" parent="1">
          <mxGeometry x="-790" y="180" width="160" height="60" as="geometry" />
        </mxCell>
        <mxCell id="_LIMwHvcYpEE9VmflvDN-7" value="reid计算人体特征" style="rounded=1;whiteSpace=wrap;html=1;" vertex="1" parent="1">
          <mxGeometry x="-580" y="180" width="155" height="60" as="geometry" />
        </mxCell>
        <mxCell id="_LIMwHvcYpEE9VmflvDN-8" value="VFE-TPS获取人体clip特征" style="rounded=1;whiteSpace=wrap;html=1;" vertex="1" parent="1">
          <mxGeometry x="-400" y="180" width="150" height="60" as="geometry" />
        </mxCell>
        <mxCell id="_LIMwHvcYpEE9VmflvDN-9" value="整合为一条轨迹数据" style="rounded=1;whiteSpace=wrap;html=1;" vertex="1" parent="1">
          <mxGeometry x="-585" y="300" width="200" height="60" as="geometry" />
        </mxCell>
        <mxCell id="_LIMwHvcYpEE9VmflvDN-21" style="edgeStyle=none;curved=1;rounded=0;orthogonalLoop=1;jettySize=auto;html=1;fontSize=12;startSize=8;endSize=8;" edge="1" parent="1" source="_LIMwHvcYpEE9VmflvDN-16">
          <mxGeometry relative="1" as="geometry">
            <mxPoint x="-590" y="330" as="targetPoint" />
          </mxGeometry>
        </mxCell>
        <mxCell id="_LIMwHvcYpEE9VmflvDN-16" value="时间戳" style="shape=parallelogram;perimeter=parallelogramPerimeter;whiteSpace=wrap;html=1;fixedSize=1;" vertex="1" parent="1">
          <mxGeometry x="-810" y="300" width="120" height="60" as="geometry" />
        </mxCell>
        <mxCell id="_LIMwHvcYpEE9VmflvDN-22" style="edgeStyle=none;curved=1;rounded=0;orthogonalLoop=1;jettySize=auto;html=1;fontSize=12;startSize=8;endSize=8;" edge="1" parent="1" source="_LIMwHvcYpEE9VmflvDN-17" target="_LIMwHvcYpEE9VmflvDN-9">
          <mxGeometry relative="1" as="geometry" />
        </mxCell>
        <mxCell id="_LIMwHvcYpEE9VmflvDN-17" value="摄像头id" style="shape=parallelogram;perimeter=parallelogramPerimeter;whiteSpace=wrap;html=1;fixedSize=1;" vertex="1" parent="1">
          <mxGeometry x="-280" y="300" width="120" height="60" as="geometry" />
        </mxCell>
        <mxCell id="_LIMwHvcYpEE9VmflvDN-18" value="" style="shape=flexArrow;endArrow=classic;html=1;rounded=0;fontSize=12;startSize=8;endSize=8;curved=1;" edge="1" parent="1">
          <mxGeometry width="50" height="50" relative="1" as="geometry">
            <mxPoint x="-650" y="250" as="sourcePoint" />
            <mxPoint x="-590" y="290" as="targetPoint" />
          </mxGeometry>
        </mxCell>
        <mxCell id="_LIMwHvcYpEE9VmflvDN-19" value="" style="shape=flexArrow;endArrow=classic;html=1;rounded=0;fontSize=12;startSize=8;endSize=8;curved=1;" edge="1" parent="1">
          <mxGeometry width="50" height="50" relative="1" as="geometry">
            <mxPoint x="-480" y="250" as="sourcePoint" />
            <mxPoint x="-480" y="290" as="targetPoint" />
          </mxGeometry>
        </mxCell>
        <mxCell id="_LIMwHvcYpEE9VmflvDN-20" value="" style="shape=flexArrow;endArrow=classic;html=1;rounded=0;fontSize=12;startSize=8;endSize=8;curved=1;" edge="1" parent="1">
          <mxGeometry width="50" height="50" relative="1" as="geometry">
            <mxPoint x="-310" y="250" as="sourcePoint" />
            <mxPoint x="-360" y="290" as="targetPoint" />
          </mxGeometry>
        </mxCell>
        <mxCell id="_LIMwHvcYpEE9VmflvDN-23" value="" style="shape=flexArrow;endArrow=classic;html=1;rounded=0;fontSize=12;startSize=8;endSize=9.758139534883721;curved=1;width=34.651162790697676;" edge="1" parent="1">
          <mxGeometry width="50" height="50" relative="1" as="geometry">
            <mxPoint x="-485.12" y="370" as="sourcePoint" />
            <mxPoint x="-485.12" y="420" as="targetPoint" />
          </mxGeometry>
        </mxCell>
        <mxCell id="_LIMwHvcYpEE9VmflvDN-28" value="人脸图片" style="text;html=1;align=center;verticalAlign=middle;whiteSpace=wrap;rounded=0;" vertex="1" parent="1">
          <mxGeometry x="-670" y="120" width="60" height="20" as="geometry" />
        </mxCell>
        <mxCell id="_LIMwHvcYpEE9VmflvDN-32" value="" style="strokeWidth=2;html=1;shape=mxgraph.flowchart.annotation_2;align=left;labelPosition=right;pointerEvents=1;rotation=90;" vertex="1" parent="1">
          <mxGeometry x="-433.75" y="106.25" width="47.5" height="100" as="geometry" />
        </mxCell>
        <mxCell id="_LIMwHvcYpEE9VmflvDN-34" style="edgeStyle=none;curved=1;rounded=0;orthogonalLoop=1;jettySize=auto;html=1;entryX=0.468;entryY=0;entryDx=0;entryDy=0;entryPerimeter=0;fontSize=12;startSize=8;endSize=8;" edge="1" parent="1" source="_LIMwHvcYpEE9VmflvDN-3" target="_LIMwHvcYpEE9VmflvDN-4">
          <mxGeometry relative="1" as="geometry" />
        </mxCell>
        <mxCell id="_LIMwHvcYpEE9VmflvDN-35" value="人体图片" style="text;html=1;align=center;verticalAlign=middle;whiteSpace=wrap;rounded=0;" vertex="1" parent="1">
          <mxGeometry x="-386.25" y="130" width="60" height="30" as="geometry" />
        </mxCell>
        <mxCell id="_LIMwHvcYpEE9VmflvDN-36" value="Faiss向量数据库" style="strokeWidth=2;html=1;shape=mxgraph.flowchart.database;whiteSpace=wrap;" vertex="1" parent="1">
          <mxGeometry x="-540" y="430" width="110" height="80" as="geometry" />
        </mxCell>
      </root>
    </mxGraphModel>
  </diagram>
</mxfile>
